<svg width="130" height="62" viewBox="0 0 130 62" fill="none" xmlns="http://www.w3.org/2000/svg">
<path d="M98.392 0.287964C103.384 0.287964 107.92 1.15196 112 2.87996C116.128 4.60797 119.56 6.95997 122.296 9.93596C125.08 12.912 127.048 16.248 128.2 19.944H113.8C112.504 17.688 110.512 15.864 107.824 14.472C105.184 13.032 102.136 12.312 98.68 12.312C95.176 12.312 92.008 13.128 89.176 14.76C86.344 16.344 84.112 18.576 82.48 21.456C80.896 24.288 80.104 27.504 80.104 31.104C80.104 34.704 80.896 37.968 82.48 40.896C84.112 43.776 86.344 46.032 89.176 47.664C92.008 49.296 95.176 50.112 98.68 50.112C101.608 50.112 104.272 49.584 106.672 48.528C109.072 47.472 111.016 46.08 112.504 44.352C114.04 42.576 115.048 40.704 115.528 38.736H97.6V27.648H129.496V31.104C129.496 36.96 128.128 42.24 125.392 46.944C122.704 51.6 118.984 55.248 114.232 57.888C109.528 60.576 104.248 61.92 98.392 61.92C92.44 61.92 87.064 60.576 82.264 57.888C77.512 55.248 73.768 51.6 71.032 46.944C68.344 42.24 67 36.96 67 31.104C67 25.248 68.344 19.992 71.032 15.336C73.768 10.632 77.512 6.95996 82.264 4.31996C87.064 1.63196 92.44 0.287964 98.392 0.287964Z" fill="#1F2F84"/>
<path d="M-0.00341797 1.80005H10.4366L30.6686 34.632L50.9006 1.80005H61.3406V60.4801H48.2366V28.296L34.6286 50.8321H26.7086L13.1006 28.296V60.4801H-0.00341797V1.80005Z" fill="#1F2F84"/>
</svg>
