<svg width="471" height="62" viewBox="0 0 471 62" fill="none" xmlns="http://www.w3.org/2000/svg">
<path d="M-0.00349969 1.8H10.4365L30.6685 34.632L50.9005 1.8H61.3405V60.48H48.2365V28.296L34.6285 50.832H26.7085L13.1005 28.296V60.48H-0.00349969V1.8ZM91.5873 17.28C95.8593 17.28 99.6993 18.24 103.107 20.16C106.515 22.032 109.179 24.648 111.099 28.008C113.019 31.368 113.979 35.16 113.979 39.384C113.979 43.608 113.019 47.4 111.099 50.76C109.179 54.12 106.515 56.736 103.107 58.608C99.6993 60.528 95.8593 61.488 91.5873 61.488C87.3153 61.488 83.4753 60.528 80.0673 58.608C76.6593 56.736 73.9953 54.12 72.0753 50.76C70.1553 47.4 69.1953 43.608 69.1953 39.384C69.1953 35.16 70.1553 31.368 72.0753 28.008C73.9953 24.648 76.6593 22.032 80.0673 20.16C83.4753 18.24 87.3153 17.28 91.5873 17.28ZM91.5873 28.224C88.6113 28.224 86.1873 29.28 84.3153 31.392C82.4913 33.456 81.5793 36.12 81.5793 39.384C81.5793 42.648 82.4913 45.336 84.3153 47.448C86.1873 49.512 88.6113 50.544 91.5873 50.544C94.5633 50.544 96.9633 49.512 98.7873 47.448C100.659 45.336 101.595 42.648 101.595 39.384C101.595 36.12 100.659 33.456 98.7873 31.392C96.9633 29.28 94.5633 28.224 91.5873 28.224ZM121.488 18.288H134.304V22.608C136.944 19.056 140.88 17.28 146.112 17.28C149.376 17.28 152.256 18.048 154.752 19.584C157.248 21.072 159.168 23.232 160.512 26.064C161.904 28.896 162.6 32.232 162.6 36.072V60.48H149.784V38.232C149.784 35.016 149.136 32.568 147.84 30.888C146.592 29.16 144.768 28.296 142.368 28.296C139.872 28.296 137.904 29.232 136.464 31.104C135.024 32.976 134.304 35.544 134.304 38.808V60.48H121.488V18.288ZM191.501 17.28C195.773 17.28 199.613 18.24 203.021 20.16C206.429 22.032 209.093 24.648 211.013 28.008C212.933 31.368 213.893 35.16 213.893 39.384C213.893 43.608 212.933 47.4 211.013 50.76C209.093 54.12 206.429 56.736 203.021 58.608C199.613 60.528 195.773 61.488 191.501 61.488C187.229 61.488 183.389 60.528 179.981 58.608C176.573 56.736 173.909 54.12 171.989 50.76C170.069 47.4 169.109 43.608 169.109 39.384C169.109 35.16 170.069 31.368 171.989 28.008C173.909 24.648 176.573 22.032 179.981 20.16C183.389 18.24 187.229 17.28 191.501 17.28ZM191.501 28.224C188.525 28.224 186.101 29.28 184.229 31.392C182.405 33.456 181.493 36.12 181.493 39.384C181.493 42.648 182.405 45.336 184.229 47.448C186.101 49.512 188.525 50.544 191.501 50.544C194.477 50.544 196.877 49.512 198.701 47.448C200.573 45.336 201.509 42.648 201.509 39.384C201.509 36.12 200.573 33.456 198.701 31.392C196.877 29.28 194.477 28.224 191.501 28.224ZM250.562 0.287996C255.554 0.287996 260.09 1.152 264.17 2.88C268.298 4.608 271.73 6.96 274.466 9.936C277.25 12.912 279.218 16.248 280.37 19.944H265.97C264.674 17.688 262.682 15.864 259.994 14.472C257.354 13.032 254.306 12.312 250.85 12.312C247.346 12.312 244.178 13.128 241.346 14.76C238.514 16.344 236.282 18.576 234.65 21.456C233.066 24.288 232.274 27.504 232.274 31.104C232.274 34.704 233.066 37.968 234.65 40.896C236.282 43.776 238.514 46.032 241.346 47.664C244.178 49.296 247.346 50.112 250.85 50.112C253.778 50.112 256.442 49.584 258.842 48.528C261.242 47.472 263.186 46.08 264.674 44.352C266.21 42.576 267.218 40.704 267.698 38.736H249.77V27.648H281.666V31.104C281.666 36.96 280.298 42.24 277.562 46.944C274.874 51.6 271.154 55.248 266.402 57.888C261.698 60.576 256.418 61.92 250.562 61.92C244.61 61.92 239.234 60.576 234.434 57.888C229.682 55.248 225.938 51.6 223.202 46.944C220.514 42.24 219.17 36.96 219.17 31.104C219.17 25.248 220.514 19.992 223.202 15.336C225.938 10.632 229.682 6.96 234.434 4.32C239.234 1.632 244.61 0.287996 250.562 0.287996ZM304.953 61.488C301.689 61.488 298.809 60.72 296.313 59.184C293.817 57.696 291.873 55.536 290.481 52.704C289.137 49.872 288.465 46.536 288.465 42.696V18.288H301.281V40.536C301.281 43.752 301.905 46.224 303.153 47.952C304.449 49.632 306.297 50.472 308.697 50.472C311.193 50.472 313.161 49.536 314.601 47.664C316.041 45.792 316.761 43.224 316.761 39.96V18.288H329.577V60.48H316.761V56.16C314.121 59.712 310.185 61.488 304.953 61.488ZM357.606 61.488C353.622 61.488 350.07 60.528 346.95 58.608C343.83 56.736 341.406 54.12 339.678 50.76C337.95 47.4 337.086 43.608 337.086 39.384C337.086 35.16 337.95 31.368 339.678 28.008C341.406 24.648 343.83 22.032 346.95 20.16C350.07 18.24 353.622 17.28 357.606 17.28C363.03 17.28 367.062 19.056 369.702 22.608V18.288H382.518V60.48H369.702V56.16C367.062 59.712 363.03 61.488 357.606 61.488ZM359.622 50.544C362.742 50.544 365.238 49.512 367.11 47.448C368.982 45.336 369.918 42.648 369.918 39.384C369.918 36.12 368.982 33.456 367.11 31.392C365.238 29.28 362.742 28.224 359.622 28.224C356.598 28.224 354.174 29.28 352.35 31.392C350.526 33.456 349.614 36.12 349.614 39.384C349.614 42.648 350.526 45.336 352.35 47.448C354.174 49.512 356.598 50.544 359.622 50.544ZM392.191 18.288H405.007V22.608C407.647 19.056 411.583 17.28 416.815 17.28C419.119 17.28 420.967 17.52 422.359 18L422.503 30.024C420.679 29.064 418.495 28.584 415.951 28.584C412.543 28.584 409.855 29.496 407.887 31.32C405.967 33.144 405.007 35.664 405.007 38.88V60.48H392.191V18.288ZM445.426 61.488C441.442 61.488 437.89 60.528 434.77 58.608C431.65 56.736 429.226 54.12 427.498 50.76C425.77 47.4 424.906 43.608 424.906 39.384C424.906 35.16 425.77 31.368 427.498 28.008C429.226 24.648 431.65 22.032 434.77 20.16C437.89 18.24 441.442 17.28 445.426 17.28C450.85 17.28 454.882 19.056 457.522 22.608V-4.29153e-06H470.338V60.48H457.522V56.16C454.882 59.712 450.85 61.488 445.426 61.488ZM447.442 50.544C450.562 50.544 453.058 49.512 454.93 47.448C456.802 45.336 457.738 42.648 457.738 39.384C457.738 36.12 456.802 33.456 454.93 31.392C453.058 29.28 450.562 28.224 447.442 28.224C444.418 28.224 441.994 29.28 440.17 31.392C438.346 33.456 437.434 36.12 437.434 39.384C437.434 42.648 438.346 45.336 440.17 47.448C441.994 49.512 444.418 50.544 447.442 50.544Z" fill="white"/>
</svg>
