<svg width="512" height="512" viewBox="0 0 512 512" fill="none" xmlns="http://www.w3.org/2000/svg">
<g clip-path="url(#clip0_134_6455)">
<path d="M448 192V362.667C448 374.464 438.464 384 426.667 384H85.3333C73.536 384 64 374.464 64 362.667V192C64 86.1227 150.123 0 256 0C361.877 0 448 86.1227 448 192ZM277.333 128C277.333 116.203 267.797 106.667 256 106.667C208.939 106.667 170.667 144.939 170.667 192C170.667 203.797 180.203 213.333 192 213.333C203.797 213.333 213.333 203.797 213.333 192C213.333 168.469 232.469 149.333 256 149.333C267.797 149.333 277.333 139.797 277.333 128ZM448 426.667H64C28.6507 426.667 0 455.317 0 490.667C0 502.443 9.55733 512 21.3333 512H490.667C502.443 512 512 502.443 512 490.667C512 455.317 483.349 426.667 448 426.667Z" fill="#DDDFEB"/>
</g>
<defs>
<clipPath id="clip0_134_6455">
<rect width="512" height="512" fill="white"/>
</clipPath>
</defs>
</svg>
